<?xml version="1.0" standalone="no"?>
<!DOCTYPE svg PUBLIC "-//W3C//DTD SVG 20010904//EN"
 "http://www.w3.org/TR/2001/REC-SVG-20010904/DTD/svg10.dtd">
<svg version="1.0" xmlns="http://www.w3.org/2000/svg"
 width="209.000000pt" height="241.000000pt" viewBox="0 0 209.000000 241.000000"
 preserveAspectRatio="xMidYMid meet">

<g transform="translate(0.000000,241.000000) scale(0.100000,-0.100000)"
fill="#000000" stroke="none">
<path d="M333 1693 c3 -481 4 -501 26 -578 13 -44 38 -112 56 -152 l33 -72
-42 5 c-58 8 -81 -6 -115 -74 -17 -31 -50 -79 -75 -107 -25 -27 -46 -53 -46
-58 0 -39 145 -182 253 -251 451 -288 1029 -231 1404 138 104 102 105 113 31
220 -29 41 -62 90 -73 108 -17 28 -27 33 -62 36 -23 2 -51 -2 -63 -8 -11 -6
-20 -9 -20 -7 0 2 14 35 31 73 17 38 43 112 57 164 26 95 26 96 30 578 l3 482
-716 0 -716 0 4 -497z m825 413 c9 5 42 8 72 6 31 -1 73 5 97 14 63 24 72 12
16 -24 -34 -22 -62 -32 -88 -32 -37 0 -38 0 -20 -20 10 -11 21 -17 26 -14 5 3
18 0 29 -6 16 -9 20 -8 20 6 0 11 5 14 18 9 40 -17 52 -17 52 -1 0 12 5 14 25
6 18 -7 25 -6 25 2 0 9 3 9 12 0 16 -16 28 -15 28 3 0 21 13 19 28 -5 16 -27
32 -25 33 3 1 17 3 15 10 -10 11 -37 15 -39 38 -20 9 7 28 18 43 25 22 9 26 9
22 -3 -3 -8 -14 -17 -25 -20 -10 -4 -21 -18 -25 -33 -14 -69 -14 -65 5 -48 10
9 35 16 61 16 37 0 41 -2 30 -15 -7 -8 -23 -15 -35 -15 -12 0 -44 -10 -71 -21
-40 -18 -60 -21 -131 -16 -46 2 -83 1 -83 -3 0 -12 60 -47 93 -55 16 -4 53 0
90 10 65 17 113 18 110 0 -1 -5 8 -20 20 -33 17 -18 19 -25 8 -31 -10 -7 -10
-10 -1 -16 9 -6 9 -10 -1 -16 -9 -6 -10 -12 -4 -16 13 -11 18 -36 5 -28 -5 3
-10 1 -10 -4 0 -6 -4 -10 -9 -9 -5 2 -16 -6 -24 -16 -16 -22 -41 -12 -33 13 4
9 -2 5 -12 -8 -11 -13 -24 -21 -31 -17 -19 12 -12 35 13 42 29 7 36 21 25 51
-11 31 -45 37 -157 25 -53 -5 -112 -7 -130 -5 -33 5 -85 45 -94 73 -3 10 -19
14 -60 14 -44 -1 -75 -11 -154 -48 -80 -38 -110 -47 -157 -48 l-57 -1 6 -34
c5 -26 3 -34 -12 -40 -11 -4 -27 -16 -36 -28 -15 -19 -17 -19 -23 -2 -7 17 -8
17 -21 0 -12 -16 -15 -16 -25 -3 -8 11 -12 12 -16 3 -6 -16 -33 -17 -33 -1 0
9 -3 9 -12 0 -18 -18 -38 -15 -31 6 6 16 5 16 -14 0 -26 -24 -36 -23 -23 2 8
16 8 20 -4 20 -7 0 -16 -7 -20 -15 -6 -18 -36 -9 -36 11 0 12 -4 12 -25 -2
-24 -15 -45 -12 -45 7 0 5 10 14 22 20 21 9 20 9 -5 4 -19 -4 -29 -1 -33 10
-10 26 1 27 61 9 55 -16 67 -16 195 0 16 2 28 13 36 32 l12 29 10 -25 9 -24
16 29 c9 17 16 26 17 20 0 -21 28 33 40 81 l13 51 77 -5 c47 -3 124 3 194 13
114 17 146 17 356 -1 67 -6 77 -4 93 13 23 26 13 49 -25 62 -45 16 -58 15
-270 -24 -230 -43 -308 -47 -339 -19 -36 33 -42 53 -24 80 19 30 45 41 144 60
41 7 82 21 91 29 14 14 15 13 18 -10 3 -21 7 -25 20 -19z m-425 6 c4 8 6 7 6
-4 1 -11 6 -15 16 -12 9 4 15 0 15 -10 0 -10 6 -13 15 -10 9 4 15 0 15 -9 0
-10 7 -13 19 -10 16 4 19 1 14 -19 -5 -24 -19 -61 -35 -92 -7 -12 -6 -16 1
-11 7 3 11 -2 11 -15 0 -12 -4 -19 -9 -16 -5 4 -7 -4 -3 -16 3 -12 1 -19 -5
-15 -5 4 -8 -7 -5 -26 4 -31 3 -31 -11 -12 -16 19 -16 19 -10 -5 6 -23 5 -24
-11 -11 -16 13 -17 12 -11 -12 9 -34 -1 -34 -38 1 l-28 27 11 -29 c19 -52 3
-63 -30 -21 -17 21 -30 45 -30 53 0 26 -17 0 -23 -35 -5 -23 -3 -33 6 -33 8 0
7 -4 -3 -10 -21 -14 -30 -12 -30 6 0 11 -6 14 -20 9 -14 -5 -20 -2 -20 9 0 9
-8 16 -20 16 -13 0 -18 5 -14 15 4 10 0 15 -16 15 -11 0 -19 4 -16 9 3 5 -1
12 -10 15 -13 5 -14 9 -4 21 10 12 9 15 -9 15 -11 0 -21 5 -21 10 0 6 7 10 15
10 9 0 15 9 15 21 0 17 -3 19 -14 10 -12 -10 -17 -8 -26 9 -13 25 -4 43 19 36
11 -4 9 -1 -5 11 -12 10 -24 26 -27 35 -5 14 -2 16 18 8 20 -8 24 -6 27 13 2
12 10 23 19 25 14 2 17 -9 21 -61 3 -47 10 -74 28 -100 30 -44 77 -74 93 -58
8 8 8 14 -1 23 -8 8 -8 17 -1 31 8 14 8 18 0 13 -16 -11 -13 20 4 34 21 17 32
5 30 -32 -2 -25 4 -39 26 -60 27 -25 30 -26 59 -12 32 16 50 41 50 69 0 13 -5
15 -17 10 -20 -9 -32 -9 -81 -4 -22 2 -31 8 -27 16 2 8 -4 22 -15 33 -16 16
-20 17 -20 5 0 -8 -4 -15 -10 -15 -15 0 -12 16 5 30 9 7 15 29 15 51 0 30 3
37 15 33 10 -4 15 0 15 11 0 14 3 15 14 6 11 -9 15 -8 20 5 5 13 9 14 20 5 11
-9 15 -9 19 1z m-209 -51 c3 -5 -1 -24 -9 -42 l-14 -34 -1 43 c0 39 11 54 24
33z m230 -172 c-9 -10 -21 -19 -26 -19 -4 0 1 9 12 20 11 11 20 26 21 33 0 9
2 9 6 -1 3 -7 -3 -22 -13 -33z m-79 -8 c-6 -5 -25 10 -25 20 0 5 6 4 14 -3 8
-7 12 -15 11 -17z m523 -27 c13 -4 22 -14 22 -26 0 -11 13 -32 30 -48 27 -25
28 -30 17 -59 -12 -33 -21 -38 -33 -20 -4 8 -13 4 -25 -12 l-18 -24 -10 25
c-6 15 -10 19 -10 9 -1 -9 -7 -21 -14 -27 -10 -8 -16 -6 -26 10 -13 22 -14 22
-29 -7 -13 -26 -16 -27 -27 -12 -14 19 -25 22 -25 6 0 -6 -7 -17 -15 -25 -13
-13 -15 -12 -21 11 -5 19 -10 23 -17 16 -14 -14 -57 -14 -57 -1 0 5 8 14 18
20 15 10 15 10 -3 6 -11 -3 -26 -2 -34 3 -25 16 9 24 98 25 49 1 96 7 108 14
22 12 22 13 3 32 -48 48 -4 103 68 84z m-718 -89 c17 -18 19 -25 9 -25 -23 0
-53 26 -45 38 9 16 9 16 36 -13z m183 -12 c-7 -2 -19 -2 -25 0 -7 3 -2 5 12 5
14 0 19 -2 13 -5z m327 -13 c0 -5 -7 -10 -15 -10 -8 0 -15 5 -15 10 0 6 7 10
15 10 8 0 15 -4 15 -10z m570 -35 c-7 -8 -16 -15 -21 -15 -5 0 -9 7 -9 15 0 9
9 15 21 15 18 0 19 -2 9 -15z m-530 -136 c0 -24 -3 -29 -12 -21 -29 23 -77 23
-150 1 -56 -16 -88 -20 -135 -16 -47 5 -64 3 -73 -8 -8 -9 -30 -15 -56 -15
l-44 0 2 -352 3 -353 185 -3 185 -2 17 -31 c10 -16 31 -35 47 -40 l30 -11 3
-124 3 -125 -35 6 c-19 3 -68 21 -108 40 -223 105 -403 297 -483 516 -47 128
-59 210 -59 400 l0 169 340 0 340 0 0 -31z m42 6 c3 -14 1 -25 -3 -25 -5 0 -9
11 -9 25 0 14 2 25 4 25 2 0 6 -11 8 -25z m538 19 c-30 -7 -530 -9 -530 -1 0
4 123 6 273 6 149 -1 265 -3 257 -5z m100 -1 c-19 -3 -38 -10 -42 -16 -5 -8
-8 -6 -8 6 0 14 8 17 43 15 40 -1 40 -1 7 -5z m-406 -45 c5 -4 -6 -3 -25 2
-18 6 -35 10 -36 10 -2 0 -3 4 -3 10 0 10 45 -6 64 -22z m133 26 c-3 -3 -12
-4 -19 -1 -8 3 -5 6 6 6 11 1 17 -2 13 -5z m49 -32 c-4 -3 -11 0 -15 7 -6 8
-14 10 -22 5 -12 -7 -12 -5 -1 9 13 15 16 15 29 1 9 -8 12 -18 9 -22z m47 31
c-7 -2 -19 -2 -25 0 -7 3 -2 5 12 5 14 0 19 -2 13 -5z m-123 -21 c0 -4 -17 -8
-38 -9 l-37 -2 30 13 c29 13 45 12 45 -2z m-134 -18 c48 -18 78 -24 101 -19
l33 6 0 -289 0 -289 -25 -11 c-37 -17 -73 -15 -145 10 -64 21 -112 19 -172 -7
-17 -7 -18 10 -18 282 0 303 1 307 45 331 34 19 109 13 181 -14z m-262 -5 l26
-20 0 -294 0 -294 -31 -36 -31 -35 -181 0 -181 0 34 35 c26 27 37 32 51 25 28
-15 71 -12 135 11 59 20 136 22 179 4 16 -6 18 -5 8 5 -22 24 -108 24 -192 0
-62 -18 -87 -21 -113 -14 l-33 10 -5 289 -5 290 -3 -291 -2 -290 -35 -34 -35
-34 0 300 0 300 46 35 c43 33 49 35 84 26 30 -9 52 -6 111 10 97 28 140 28
173 2z m526 11 c0 -5 -4 -10 -10 -10 -5 0 -10 5 -10 10 0 6 5 10 10 10 6 0 10
-4 10 -10z m-53 -371 l2 -304 -34 39 -35 39 0 290 0 290 33 -25 32 -26 2 -303z
m-875 308 c-22 -23 -22 -29 -22 -330 l0 -307 199 0 198 0 -4 -24 c-5 -26 36
-66 68 -66 27 0 59 36 59 65 l0 25 195 0 195 0 0 320 c0 293 -1 320 -17 329
-15 9 -14 10 10 11 l27 0 0 -340 0 -340 -195 0 -195 0 0 -23 c0 -36 -33 -59
-80 -59 -53 1 -90 25 -90 57 l0 25 -190 0 -190 0 0 340 0 340 27 0 26 0 -21
-23z m935 1 c-3 -8 -6 -5 -6 6 -1 11 2 17 5 13 3 -3 4 -12 1 -19z m190 -210
c-3 -7 -5 -2 -5 12 0 14 2 19 5 13 2 -7 2 -19 0 -25z m-37 -85 c-11 -17 -11
-17 -6 0 3 10 6 24 7 30 0 9 2 9 5 0 3 -7 0 -20 -6 -30z m27 15 c-3 -8 -6 -5
-6 6 -1 11 2 17 5 13 3 -3 4 -12 1 -19z m-32 -58 c9 -18 11 -30 5 -30 -9 0
-30 40 -30 56 0 12 11 1 25 -26z m-18 -62 c-3 -8 -6 -5 -6 6 -1 11 2 17 5 13
3 -3 4 -12 1 -19z m-31 -125 l-15 -28 2 25 c1 14 6 30 12 37 16 18 17 -4 1
-34z m-400 -24 c56 -19 115 -21 155 -5 12 5 26 -5 49 -33 l32 -41 -187 0 -186
0 -24 28 c-13 15 -25 30 -25 33 0 11 72 38 101 38 14 1 52 -8 85 -20z m369 1
c3 -5 1 -10 -4 -10 -6 0 -11 5 -11 10 0 6 2 10 4 10 3 0 8 -4 11 -10z m-28 -6
c-3 -3 -12 -4 -19 -1 -8 3 -5 6 6 6 11 1 17 -2 13 -5z m-27 -18 c0 -3 -4 -8
-10 -11 -5 -3 -10 -1 -10 4 0 6 5 11 10 11 6 0 10 -2 10 -4z m40 -37 c-14 -25
-18 -24 -15 4 3 29 3 29 15 22 7 -4 7 -13 0 -26z m175 -7 c11 -18 44 -67 73
-108 28 -41 52 -84 52 -95 0 -26 -103 -135 -190 -201 -84 -63 -261 -150 -371
-182 -372 -106 -789 0 -1070 274 -46 44 -79 85 -79 96 0 11 18 40 41 64 22 25
54 71 70 103 16 32 37 61 47 64 31 12 79 7 107 -11 36 -24 27 -30 -18 -11 -68
28 -107 11 -107 -47 0 -83 119 -197 295 -284 159 -78 238 -97 410 -97 112 -1
158 3 227 21 191 47 402 180 480 301 30 47 35 80 18 112 -13 23 -72 26 -110 4
-43 -25 -47 -16 -5 11 57 35 103 30 130 -14z m-201 -18 c7 -19 2 -18 -19 6
-16 17 -16 20 -3 15 9 -4 19 -13 22 -21z m177 3 c8 -18 7 -33 -5 -62 l-16 -38
-21 27 c-11 14 -25 26 -30 26 -5 0 -25 -24 -44 -54 -38 -59 -61 -74 -83 -52
-45 45 78 175 166 176 14 0 26 -9 33 -23z m-1281 -25 c40 -30 71 -83 68 -116
-5 -50 -25 -41 -59 26 -17 35 -33 65 -36 68 -2 2 -19 -13 -38 -35 l-34 -40
-16 39 c-19 44 -13 83 13 88 24 6 73 -9 102 -30z m1084 2 c3 -8 2 -12 -4 -9
-6 3 -10 10 -10 16 0 14 7 11 14 -7z m-48 -59 c1 -8 -2 -15 -7 -15 -6 0 -7 -4
-4 -10 3 -6 -1 -7 -9 -4 -14 5 -14 8 -1 21 9 8 12 20 8 26 -3 7 -2 8 2 4 5 -4
10 -14 11 -22z m-1036 -45 c21 -41 36 -60 49 -60 27 0 44 26 37 56 -5 17 -3
23 4 19 22 -14 10 -61 -25 -95 l-34 -33 -56 47 c-30 26 -55 52 -55 58 0 8 40
66 47 67 2 1 16 -26 33 -59z m1234 38 c15 -21 14 -24 -22 -61 -20 -21 -50 -48
-65 -59 l-29 -20 -34 33 c-23 22 -34 41 -33 58 2 23 2 23 6 4 12 -62 70 -54
114 17 17 28 35 50 39 50 5 0 16 -10 24 -22z m-579 -18 c-10 -11 -22 -20 -28
-20 -5 0 1 9 14 20 31 25 37 25 14 0z m306 -23 c-16 -16 -26 0 -10 19 9 11 15
12 17 4 2 -6 -1 -17 -7 -23z m-281 3 c-20 -13 -33 -13 -25 0 3 6 14 10 23 10
15 0 15 -2 2 -10z m330 -3 c0 -2 -11 -14 -24 -26 -16 -15 -26 -19 -31 -12 -3
7 -2 10 3 9 6 -2 10 1 10 7 0 5 9 12 19 16 23 10 23 10 23 6z m-380 -17 c0 -5
-5 -10 -11 -10 -5 0 -7 5 -4 10 3 6 8 10 11 10 2 0 4 -4 4 -10z m-361 -119
c75 -52 210 -116 268 -129 87 -20 283 70 433 199 l55 47 38 -43 c20 -24 37
-46 37 -49 0 -10 -135 -83 -203 -110 -98 -39 -206 -58 -332 -58 -142 0 -255
26 -390 92 -142 70 -135 62 -92 109 20 23 37 46 37 52 0 6 19 -6 43 -28 23
-21 71 -58 106 -82z m421 109 c0 -5 -2 -10 -4 -10 -3 0 -8 5 -11 10 -3 6 -1
10 4 10 6 0 11 -4 11 -10z m-33 -16 c-3 -3 -12 -4 -19 -1 -8 3 -5 6 6 6 11 1
17 -2 13 -5z m262 -18 c10 -12 8 -13 -8 -9 -12 3 -21 9 -21 14 0 14 16 11 29
-5z m-14 -26 c3 -5 -1 -10 -10 -10 -9 0 -13 5 -10 10 3 6 8 10 10 10 2 0 7 -4
10 -10z m-100 -20 c3 -5 -1 -10 -10 -10 -9 0 -13 5 -10 10 3 6 8 10 10 10 2 0
7 -4 10 -10z m-208 -47 c-3 -10 -5 -2 -5 17 0 19 2 27 5 18 2 -10 2 -26 0 -35z
m191 11 c2 -1 -1 -5 -7 -8 -5 -4 -15 4 -22 16 -12 22 -11 22 7 8 10 -8 20 -15
22 -16z m72 19 c-8 -3 -18 -11 -22 -17 -5 -8 -8 -7 -8 1 0 7 -7 10 -17 7 -12
-4 -14 -3 -6 3 7 5 25 9 40 10 15 1 21 -1 13 -4z m-253 -105 c-2 -13 -4 -5 -4
17 -1 22 1 32 4 23 2 -10 2 -28 0 -40z m93 18 c0 -2 -7 -6 -15 -10 -8 -3 -15
-1 -15 4 0 6 7 10 15 10 8 0 15 -2 15 -4z"/>
<path d="M971 2058 c-47 -18 -62 -44 -36 -64 15 -12 35 -14 85 -10 36 3 66 10
68 15 2 6 10 7 19 4 8 -3 18 -1 22 5 5 9 23 9 69 0 44 -8 66 -8 73 -1 8 8 8
13 0 17 -6 4 -11 2 -11 -3 0 -19 -44 -12 -90 15 -53 31 -147 41 -199 22z"/>
<path d="M657 2039 c10 -19 19 -26 30 -22 12 5 14 3 8 -8 -6 -11 -5 -11 5 -2
16 14 7 28 -29 46 l-28 14 14 -28z"/>
<path d="M737 2013 c-4 -3 -6 -18 -6 -32 1 -16 3 -19 6 -9 2 9 16 19 31 21 27
4 27 4 -3 6 -30 3 -30 3 -5 11 22 7 22 8 4 9 -11 1 -24 -2 -27 -6z"/>
<path d="M690 1976 c0 -7 8 -20 18 -27 15 -13 16 -12 4 3 -10 13 -10 17 0 20
8 3 6 7 -5 11 -11 4 -17 1 -17 -7z"/>
<path d="M1258 1413 c-13 -3 -16 -11 -11 -36 3 -18 7 -34 9 -35 1 -2 -2 -17
-8 -33 -6 -18 -24 -37 -47 -49 -29 -15 -32 -19 -14 -20 35 0 53 10 69 41 17
34 64 42 64 11 0 -10 6 -26 13 -35 10 -14 12 -2 12 73 l0 90 -35 -1 c-19 -1
-43 -3 -52 -6z m70 -25 c-3 -7 -17 -13 -33 -13 -16 0 -30 6 -32 13 -3 8 7 12
32 12 25 0 35 -4 33 -12z m-8 -48 c0 -15 -7 -20 -25 -20 -24 0 -34 18 -18 33
15 15 43 7 43 -13z"/>
<path d="M1157 1403 c-39 -3 -47 -7 -43 -19 3 -9 6 -40 6 -70 0 -51 1 -54 19
-44 11 5 31 10 45 10 25 0 26 2 26 65 0 36 -1 64 -2 63 -2 -1 -25 -3 -51 -5z
m43 -22 c0 -10 -50 -25 -57 -17 -3 2 -2 9 2 15 8 13 55 15 55 2z m0 -41 c0 -5
-3 -10 -7 -10 -5 0 -18 -3 -30 -6 -17 -5 -23 -2 -23 10 0 11 9 16 30 16 17 0
30 -4 30 -10z m-5 -40 c-3 -5 -17 -10 -31 -10 -13 0 -24 5 -24 10 0 6 14 10
31 10 17 0 28 -4 24 -10z"/>
<path d="M1270 1190 c0 -5 -9 -10 -19 -10 -11 0 -23 -5 -27 -11 -4 -7 0 -9 14
-5 11 4 23 3 26 -2 3 -5 -8 -12 -25 -16 -25 -5 -30 -10 -27 -28 3 -21 8 -23
57 -21 61 3 56 1 65 31 7 19 4 22 -23 22 -41 0 -40 18 2 23 l32 4 -33 1 c-19
1 -31 6 -27 12 3 6 1 10 -4 10 -6 0 -11 -4 -11 -10z m18 -67 c-5 -25 -28 -28
-28 -4 0 12 6 21 16 21 9 0 14 -7 12 -17z m32 2 c0 -8 -4 -15 -10 -15 -5 0
-10 7 -10 15 0 8 5 15 10 15 6 0 10 -7 10 -15z m-70 -11 c0 -9 -5 -14 -12 -12
-18 6 -21 28 -4 28 9 0 16 -7 16 -16z"/>
<path d="M1145 1160 c-19 -8 -19 -9 2 -9 12 -1 25 4 28 9 7 12 -2 12 -30 0z"/>
<path d="M1138 1122 c-21 -2 -38 -8 -38 -13 0 -6 14 -7 36 -3 34 6 36 6 25
-14 -13 -25 -47 -45 -61 -37 -6 3 -10 1 -10 -5 0 -21 53 -5 72 21 29 38 21 55
-24 51z"/>
<path d="M1325 1080 c3 -5 11 -10 16 -10 6 0 7 5 4 10 -3 6 -11 10 -16 10 -6
0 -7 -4 -4 -10z"/>
<path d="M1195 1060 c-20 -22 -14 -26 14 -8 16 9 27 8 59 -6 43 -19 83 -19 90
2 3 10 -2 10 -21 1 -20 -9 -33 -7 -72 10 -26 12 -49 21 -50 21 -1 0 -10 -9
-20 -20z"/>
<path d="M1278 1073 c7 -3 16 -2 19 1 4 3 -2 6 -13 5 -11 0 -14 -3 -6 -6z"/>
<path d="M800 1392 c0 -14 -7 -22 -22 -24 -12 -2 -23 -8 -25 -14 -2 -7 6 -10
22 -7 14 3 25 1 25 -5 0 -11 -45 -46 -69 -54 -12 -4 -12 -5 1 -11 10 -3 27 3
42 14 l25 19 4 -32 c4 -32 4 -32 5 6 2 31 5 37 18 32 14 -6 15 -4 4 9 -7 9
-15 30 -17 47 -4 37 -13 51 -13 20z"/>
<path d="M883 1381 c-16 -26 -16 -26 4 -8 23 20 53 22 53 3 0 -21 -27 -38 -49
-31 -10 3 -22 1 -26 -5 -4 -6 5 -10 21 -10 l28 0 -29 -30 c-16 -16 -38 -30
-49 -30 -17 0 -18 -2 -7 -9 10 -6 25 -4 42 5 35 18 36 18 42 -6 8 -30 45 -26
57 6 15 39 13 44 -21 44 -25 0 -29 3 -20 14 6 7 22 11 35 9 13 -3 27 0 30 6 5
7 -2 11 -18 11 -29 0 -30 3 -16 30 8 15 5 18 -25 22 -29 3 -38 0 -52 -21z m73
-92 c10 -17 -13 -36 -27 -22 -12 12 -4 33 11 33 5 0 12 -5 16 -11z"/>
<path d="M800 1151 c0 -22 -30 -30 -30 -8 -1 6 -7 -1 -14 -18 -16 -37 -12 -44
12 -22 24 22 32 21 32 -2 0 -11 -12 -23 -30 -31 -16 -7 -30 -17 -30 -22 0 -6
8 -7 18 -3 9 4 22 9 29 12 6 2 13 -4 16 -14 3 -12 5 -9 6 9 0 15 6 30 11 33 6
4 7 11 4 17 -4 6 0 14 7 19 10 6 11 9 2 9 -7 0 -13 6 -13 14 0 8 -4 18 -10 21
-5 3 -10 -3 -10 -14z"/>
<path d="M859 1134 c-15 -30 -10 -49 6 -24 3 6 10 10 16 10 17 0 9 -22 -20
-51 -17 -17 -24 -29 -16 -29 13 0 36 25 61 66 7 11 15 16 19 12 8 -8 -10 -44
-39 -77 l-21 -25 27 17 c16 10 29 13 33 7 12 -19 25 -10 45 30 32 62 28 70
-34 70 -38 0 -56 4 -58 14 -2 7 -10 -2 -19 -20z m104 -49 c-9 -19 -23 -35 -30
-35 -18 0 -16 9 7 48 26 43 45 32 23 -13z"/>
<path d="M1741 691 c-30 -30 -18 -50 32 -48 33 2 42 -2 45 -16 2 -12 -3 -20
-17 -24 -11 -3 -18 -9 -15 -14 10 -16 44 11 44 35 0 35 -22 48 -67 41 l-38 -6
24 21 c13 11 21 23 18 26 -3 3 -15 -4 -26 -15z"/>
<path d="M298 653 c-3 -49 -25 -71 -35 -34 -5 21 -23 30 -23 12 0 -12 29 -41
40 -41 23 0 40 33 34 66 -5 27 -3 34 10 34 9 0 19 -7 22 -15 4 -8 10 -15 15
-15 6 0 5 9 -1 20 -6 12 -21 20 -35 20 -21 0 -24 -5 -27 -47z"/>
<path d="M1687 642 c-9 -14 57 -91 78 -91 19 0 19 0 2 10 -10 6 -31 28 -47 50
-15 22 -31 36 -33 31z"/>
<path d="M348 607 c-26 -18 -48 -35 -48 -40 0 -4 11 -1 24 8 20 14 25 14 35 1
10 -11 10 -20 1 -36 -6 -12 -9 -24 -6 -28 8 -7 9 -6 34 57 34 84 31 86 -40 38z
m42 6 c-1 -18 -19 -35 -29 -28 -9 5 -7 11 6 21 21 16 23 16 23 7z"/>
<path d="M1636 592 c-3 -6 12 -29 33 -53 37 -42 40 -43 57 -27 16 16 16 17 -4
12 -16 -5 -27 4 -50 35 -17 23 -33 38 -36 33z"/>
<path d="M412 544 c-19 -25 -32 -48 -29 -51 3 -2 20 16 39 41 18 25 38 44 43
42 16 -4 18 -48 3 -57 -10 -7 -9 -9 4 -9 25 0 33 38 12 61 -25 27 -35 24 -72
-27z"/>
<path d="M1572 549 c-18 -12 -31 -24 -28 -27 3 -3 11 0 19 6 10 8 19 1 41 -34
15 -24 32 -44 37 -44 5 0 -4 21 -21 48 -27 43 -28 48 -13 60 28 20 0 13 -35
-9z"/>
<path d="M493 491 c-17 -27 -29 -52 -26 -55 5 -5 26 24 67 92 4 6 4 12 -1 12
-4 0 -22 -22 -40 -49z"/>
<path d="M533 466 l-30 -52 30 -18 c16 -9 32 -14 35 -12 2 3 -7 11 -21 17 -22
10 -24 15 -16 31 8 15 14 17 24 8 9 -8 15 -8 20 0 3 5 -1 10 -9 10 -18 0 -20
17 -7 39 8 12 14 13 35 3 35 -16 33 -6 -2 12 -29 15 -29 15 -59 -38z"/>
<path d="M1474 499 c-21 -11 -21 -11 8 -65 16 -30 34 -54 39 -54 5 0 3 11 -6
24 -14 20 -14 25 -1 36 12 10 21 8 45 -9 16 -12 32 -18 35 -13 2 4 -8 17 -24
27 -16 11 -31 29 -32 40 -3 23 -33 29 -64 14z m50 -15 c6 -16 -9 -44 -24 -44
-4 0 -12 11 -18 24 -8 19 -8 26 1 30 23 9 35 6 41 -10z"/>
<path d="M607 425 c-15 -30 -23 -55 -19 -55 5 0 17 17 27 38 l18 37 10 -45
c12 -60 24 -70 37 -34 6 16 17 41 25 56 10 20 10 28 1 31 -7 3 -12 -3 -13 -12
-1 -9 -7 -29 -14 -46 l-12 -30 -9 50 c-5 28 -13 53 -17 57 -4 5 -19 -17 -34
-47z"/>
<path d="M1410 467 c0 -14 48 -116 52 -112 7 8 -34 115 -44 115 -5 0 -8 -1 -8
-3z"/>
<path d="M1382 420 c0 -19 2 -27 5 -17 2 9 2 25 0 35 -3 9 -5 1 -5 -18z"/>
<path d="M748 433 c15 -6 15 -11 -3 -64 -11 -31 -12 -46 -4 -53 6 -7 9 -7 7
-1 -1 6 4 32 11 58 12 41 17 48 34 43 11 -3 16 -1 11 4 -5 4 -22 10 -39 12
-16 3 -24 3 -17 1z"/>
<path d="M1326 375 c37 -55 54 -62 54 -22 0 17 -2 19 -9 8 -7 -10 -15 -4 -32
28 -13 22 -30 41 -37 41 -7 0 3 -23 24 -55z"/>
<path d="M824 403 c0 -10 -4 -38 -8 -63 -4 -30 -4 -40 3 -30 13 22 25 110 14
110 -5 0 -9 -8 -9 -17z"/>
<path d="M1165 400 c-24 -6 -26 -8 -7 -9 19 -1 22 -7 24 -43 0 -24 1 -49 1
-55 -1 -7 5 -13 12 -13 10 0 11 9 4 38 -14 62 -11 80 14 85 18 3 18 4 2 4 -11
1 -33 -3 -50 -7z"/>
<path d="M872 345 c-17 -30 -26 -55 -22 -55 5 0 12 9 15 20 4 13 15 20 31 20
19 0 24 -5 24 -25 0 -14 5 -25 11 -25 7 0 9 9 6 23 -3 12 -9 39 -12 60 -4 20
-11 37 -15 37 -5 0 -22 -25 -38 -55z m38 15 c0 -11 -7 -20 -15 -20 -13 0 -14
4 -5 20 6 11 13 20 15 20 3 0 5 -9 5 -20z"/>
<path d="M1045 335 l0 -65 38 0 c20 0 37 4 37 8 0 5 -13 7 -29 4 l-30 -4 0 55
c0 53 2 56 27 60 22 3 21 4 -8 6 l-35 1 0 -65z"/>
</g>
</svg>
